<svg version="1.1" id="圖層_1" xmlns="http://www.w3.org/2000/svg" x="0" y="0" viewBox="0 0 128 128" xml:space="preserve"><style>.st0{fill:#367ab8}.st1{fill:#fff}.st3{fill:#595757}.st4{fill:#333}</style><circle class="st0" cx="14.4" cy="64.2" r="12"/><path class="st1" d="M14.4 76.6C7.6 76.6 2 71.1 2 64.2c0-6.8 5.6-12.4 12.4-12.4 6.8 0 12.4 5.6 12.4 12.4 0 6.9-5.6 12.4-12.4 12.4zm0-23.9c-6.3 0-11.5 5.2-11.5 11.5s5.2 11.5 11.5 11.5 11.5-5.2 11.5-11.5-5.2-11.5-11.5-11.5z"/><circle class="st0" cx="38.7" cy="64.2" r="12"/><path class="st1" d="M38.7 76.6c-6.8 0-12.4-5.6-12.4-12.4 0-6.8 5.6-12.4 12.4-12.4 6.8 0 12.4 5.6 12.4 12.4 0 6.9-5.6 12.4-12.4 12.4zm0-23.9c-6.3 0-11.5 5.2-11.5 11.5s5.2 11.5 11.5 11.5 11.5-5.2 11.5-11.5S45 52.7 38.7 52.7z"/><circle class="st0" cx="63.6" cy="64.2" r="12"/><path class="st1" d="M63.6 76.6c-6.8 0-12.4-5.6-12.4-12.4 0-6.8 5.6-12.4 12.4-12.4S76 57.4 76 64.2c0 6.9-5.6 12.4-12.4 12.4zm0-23.9c-6.3 0-11.5 5.2-11.5 11.5s5.2 11.5 11.5 11.5 11.5-5.2 11.5-11.5-5.2-11.5-11.5-11.5z"/><circle class="st0" cx="88.5" cy="64.2" r="12"/><path class="st1" d="M88.5 76.6c-6.8 0-12.4-5.6-12.4-12.4 0-6.8 5.6-12.4 12.4-12.4 6.8 0 12.4 5.6 12.4 12.4 0 6.9-5.6 12.4-12.4 12.4zm0-23.9c-6.3 0-11.5 5.2-11.5 11.5s5.2 11.5 11.5 11.5S100 70.6 100 64.2c0-6.3-5.2-11.5-11.5-11.5z"/><circle class="st0" cx="113.4" cy="64.2" r="12"/><path class="st1" d="M113.4 76.6c-6.8 0-12.4-5.6-12.4-12.4 0-6.8 5.6-12.4 12.4-12.4 6.8 0 12.4 5.6 12.4 12.4 0 6.9-5.6 12.4-12.4 12.4zm0-23.9c-6.3 0-11.5 5.2-11.5 11.5s5.2 11.5 11.5 11.5 11.5-5.2 11.5-11.5-5.2-11.5-11.5-11.5zM11.3 60.8c.1.1.2.1.2.2.7-.1 1.4-.2 2.2-.3v-.6c0-.1-.1-.2-.2-.2s-.1 0-.1-.2c.1 0 .1 0 .2-.1 0-.1-.1-.1-.2-.1s-.1 0-.1-.1c.2 0 .3-.2.5-.4h-.3c-.6.1-1.1.1-1.6.2-.6.2-1.2.3-1.8.3-.3 0-.5-.1-.6-.3-.1-.2-.2-.4-.2-.6 0-.2 0-.3.2-.5.2-.3.4-.6.4-.7.1 0 .1 0 .2.1 0 .1 0 .1.1.1l.1-.1c.1 0 .1 0 .1.1s0 .2.1.2c2.7-.3 5.8-.7 9.3-1 .5 0 .8.2.9.7 0 .5-.2.8-.7.9-.7.1-1.6.2-2.8.3-.5 0-1 .1-1.4.1.1.2.2.3.2.4 0 .2-.1.3-.1.5-.1.1-.1.2-.1.3v.4h.1c.6 0 1.2-.1 1.8-.1.1 0 .2-.1.4-.3.2-.1.3-.1.6-.1s.6.1.9.3c.3.3.5.6.6.9 0 .2-.1.4-.2.6-.1.2-.1.4-.1.6v3.5h1.9c.5 0 .9.3 1.1 1 0 .5-.4.7-1.1.7h-1.9v2.7c0 .6-.2 1.1-.6 1.5-.4.4-.8.6-1.2.6-.3 0-.5-.1-.7-.4-.1-.3-.2-.5-.4-.7-.3-.2-.5-.3-.5-.4 0-.1-.1-.2-.1-.3-.1-.1-.1-.2-.2-.2-.2-.1-.3-.2-.3-.3 0-.2.1-.2.2-.2s.3.1.6.2h.5c.3 0 .5-.9.5-2.6-2.3.1-4.3.2-5.9.3h-.5c0 .9-.1 1.9-.1 2.8-.1.6-.3 1-.8 1.1-.5 0-.9-.5-1-1.5.1-.8.1-1.6.2-2.3-.2 0-.4 0-.6.1-.5.2-.9.2-1.2.2-.6-.1-.9-.3-1-.9 0-.3.1-.6.2-.8.2-.1.5-.2.8-.5.1 0 .1.1.1.1 0 .1 0 .2.1.2s.2 0 .2-.2c.1 0 .1 0 .1.1s0 .1.1.2c.3 0 .7 0 1.2-.1.1-2 .2-3.4.2-4.1 0-.1-.1-.2-.3-.2-.1 0-.1 0-.1-.1.1 0 .1 0 .2-.1-.1 0-.1-.1-.2-.1s-.1-.1-.1-.1c.2-.2.4-.5.6-.8.2-.2.4-.2.6-.2.3.1.6.2.8.3zm.3 5.4c.7 0 1.4-.1 2-.2 0-.1-.1-.2-.1-.4v-.9c-.2 0-.4.1-.5.1-.3.1-.6.1-.9.1-.2 0-.4-.1-.5-.2-.1-.2-.2-.4-.2-.5 0-.1 0-.3.1-.4.2-.3.3-.5.3-.6.1 0 .1 0 .1.1s0 .1.1.1l.1-.1c.1 0 .1 0 .1.1s0 .1.1.2c.4 0 .8-.1 1.3-.1v-1.4c-.2 0-.4 0-.5.1-.7.1-1.2.2-1.6.2 0 .1-.1.2-.1.3 0 1.1 0 2.3-.1 3.7.1-.2.2-.2.3-.2zm4-.3c.7 0 1.4-.1 2.1-.1 0-1.9-.1-3.1-.1-3.6-.1-.3-.4-.5-1-.5-.5 0-.9.1-1.3.1v1.4c.5 0 1-.1 1.5-.1.4 0 .7.2.8.6 0 .4-.2.7-.6.8-.3 0-.8.1-1.4.1h-.3v1.3c0 .1.2.1.3 0zm21.9 2c0 .1-.1.2-.2.3-.2.1-.4.2-.5.3-.1.2-.3.5-.5.7-.3.3-.5.6-.7.8-.3.3-.7.6-1 .8-.6.4-1.1.6-1.2.6h-.6c-.1 0-.3.1-.4.2-.1.1-.2.1-.3.2-.2 0-.3-.1-.3-.2.2-.3.6-.8 1.4-1.3.6-.4 1-.8 1.3-1.3.5-.6.7-1.1.7-1.4 0-.1-.1-.1-.2-.2-.1 0-.1 0-.1-.1.1 0 .2-.1.3-.2 0-.1-.1-.1-.2-.1s-.1-.1-.1-.2c.1 0 .3-.1.6-.1.3-.1.5-.2.7-.2.2 0 .4-.1.5-.1.5.1.8.6.8 1.5zM35 57.6c.1 0 .1 0 0 0 .2.1.2.2.3.2.5 0 1.4-.1 2.7-.2 1.6 0 2.6-.1 3.1-.3.1 0 .3-.1.5-.3.2-.1.4-.1.6-.1.3 0 .5.2.8.5.2.2.3.4.3.7 0 .2 0 .3-.1.5-.2.2-.3.4-.3.6 0 2 0 4 .1 6 0 .3-.1.6-.2.9-.3.2-.5.3-.6.3-.3 0-.6-.1-.9-.3-.1-.1-.1-.2-.1-.3l-.1.1c-.4 0-1 .1-1.6.2-.6 0-1.3.1-2.1.1-.3 0-.7.1-1 .1-.3.1-.5.1-.7.1-.1.2-.3.4-.6.5-.3 0-.5-.1-.7-.4-.2-.1-.3-.4-.4-.7v-6.4c-.1-.1-.1-.2-.2-.2s-.1-.1-.2-.1c0-.1.1-.2.2-.2 0 0-.1-.1-.2-.1s-.1-.1-.1-.2c.1-.1.3-.2.4-.3.3-.5.5-.7.7-.7-.1-.2.1-.2.4 0zm5.7 6.8h.2v-5.5c0-.2-.1-.3-.3-.3-1.6.2-3 .3-4.2.4-.3.1-.6.1-.9.2v5.6c1.6-.2 3.3-.3 5.2-.4zm-.1-4c0 .4-.2.6-.6.7-.3 0-.6.1-1 .1s-.9.1-1.3.1c-.2 0-.4.1-.6.1-.2.1-.5.1-.7.1-.2 0-.4-.1-.5-.2-.1-.2-.2-.3-.2-.4 0-.1 0-.2.1-.4.2-.2.3-.4.3-.5.1 0 .1 0 .1.1s0 .1.1.1c0 0 .1 0 .1-.1h.1c0 .1 0 .1.1.2 1-.1 2.1-.3 3.3-.4.4-.1.6.1.7.5zm0 2.2c0 .4-.2.6-.5.7-.3 0-.6.1-1.1.1-.4 0-.9.1-1.3.1-.2 0-.4.1-.6.1-.2.1-.5.1-.7.1-.2 0-.4-.1-.5-.2-.1-.2-.2-.3-.2-.4 0-.1 0-.2.1-.4.2-.2.3-.4.3-.5.1 0 .1 0 .1.1s0 .1.1.1l.1-.1s.1 0 .1.1 0 .1.1.1c1-.1 2.1-.2 3.4-.4.3 0 .5.2.6.5zm1.2 4.5c0 .2 0 .4-.1.6-.1.1-.2.3-.2.5-.1.3-.2.7-.2 1.1 0 .3.1.5.4.6.2.2.6.2 1.1.2.6 0 1-.1 1.1-.3.2-.2.3-.4.4-.8 0-.6.1-1 .1-1.3 0-.3.1-.4.3-.4.2.1.3.3.3.7 0 .1.1.2.3.4.1.4.1.7.1.9 0 .1.2.3.4.5s.3.4.3.7c0 .5-.2.8-.7.9-.5.2-1.2.3-2.2.3-1.3 0-2.2-.2-2.7-.6-.6-.4-.9-1-.9-1.9 0-.4 0-.8.2-1.2 0-.2-.1-.4-.2-.5-.2-.1-.4-.2-.4-.3.4-.7.9-1 1.4-1.1.7.1 1.1.5 1.2 1zm19.3-6.7c0 .4-.2.6-.6.7l-.9.3v1.7c.5-.2 1-.5 1.5-.7.1 0 .2 0 .2.1s-.1.2-.1.3c-.1.1-.2.2-.2.3 0 .1-.1.2-.1.4 0 .1-.1.2-.3.4-.2.1-.4.3-.7.5-.1.1-.2.1-.2.2v.8c0 2.1 0 3.8.1 4.9-.1.4-.2.7-.5 1-.3.4-.5.6-.8.6-.2 0-.4-.1-.6-.3-.2-.4-.3-.7-.3-.8l-.4-.4c-.2-.1-.2-.2-.2-.3 0-.1 0-.2-.1-.3 0-.1-.2-.3-.4-.5l-.2-.2c0-.2.1-.2.2-.2.2.2.5.3.8.5.2.1.4.2.6.2.1 0 .2-.9.2-2.5v-1.4l-1.2.6c-.1.1-.2.2-.3.4-.1.1-.2.2-.3.2-.2 0-.5-.2-.7-.5-.2-.2-.3-.5-.4-1 0-.2.1-.4.2-.6.2-.2.3-.3.4-.3 0 .1 0 .2.2.2.1 0 .1 0 .1-.1.1 0 .2.1.2.2.3 0 .9-.2 1.9-.7V62h-.1c-.2.1-.4.1-.6.2-.3.2-.5.3-.7.3-.3 0-.5-.1-.7-.3-.2-.3-.2-.5-.2-.6 0-.2 0-.3.2-.6.3-.3.4-.6.5-.7.1 0 .1 0 .2.1 0 .1 0 .1.1.1 0 0 .1-.1.1-.2.1 0 .1 0 .1.1s0 .2.1.2c.4-.1.7-.2 1.1-.2 0-1-.1-1.6-.1-2 0-.1-.1-.1-.2-.1-.2 0-.2 0-.2-.1.1 0 .1-.1.1-.2h-.1c-.1 0-.2 0-.2-.2l.6-.6c.3-.3.5-.5.7-.5.2 0 .5.1.7.2.3.2.5.4.5.7 0 .2-.1.4-.1.5-.1.2-.2.4-.2.5V60c.3 0 .5-.1.8-.1.2 0 .5.2.5.5zm4.7-2.7c.4.3.6.6.6.8 0 .1-.1.2-.1.3-.2.1-.3.2-.3.3-.5 2.4-.9 3.6-1.1 3.6-.2 0-.4-.1-.5-.2-.2-.2-.3-.3-.4-.3h-.5c-.2 0-.4.1-.5.1.1.1.2.1.2.2.3.3.5.6.5.9 0 .1-.1.2-.2.4 0 .1.1.1.1.1l.1.1.1.1c.1 0 .3-.1.5-.2s.4-.2.6-.2c.3 0 .5.2.8.4.2.3.4.5.4.7 0 .2-.1.5-.3.9-.1.5-.2 1-.2 1.7-.1.9-.2 1.7-.5 2.3-.2.6-.4 1-.7 1.3-.3.3-.6.5-1 .6-.2 0-.4-.2-.5-.4 0-.2-.1-.5-.1-.6 0-.1-.1-.2-.2-.3-.1-.1-.2-.2-.2-.3v-.2l-.2-.2c-.1 0-.1-.1-.1-.1 0-.1.1-.2.2-.2 0 0 .2 0 .5.1h.5c.5-.2.9-1.4 1-3.6 0-.3-.2-.4-.4-.5-.2 0-.5.1-.7.2-.1.1-.2.1-.2.1-.1.3-.2.6-.2.9-.2.7-.4 1.3-.5 1.7-.2.5-.4 1-.7 1.3-.2.3-.4.5-.6.5-.1 0-.2 0-.2.1l-.2.2-.2.2c-.2 0-.3-.2-.3-.4.1-.2.2-.5.4-.9.2-.5.4-.9.6-1.4.2-.7.4-1.3.5-2 .2-.7.2-1.4.3-2.1 0-.1-.1-.1-.2-.1s-.1 0-.1-.1c.1 0 .1-.1.2-.1-.1 0-.1-.1-.2-.1 0 0-.1 0-.1-.2.1 0 .2-.2.4-.5-.2-.1-.3-.4-.4-.9 0-.3-.1-.7-.2-1.2 0-.5-.1-.9-.2-1.3-.1 0-.2 0-.2-.1-.1 0-.2 0-.2-.1.1-.1.2-.1.2-.2h-.3c-.1 0-.2 0-.2-.2.2-.1.4-.4.6-.7.2-.2.4-.4.7-.5.2 0 .3 0 .5.1.2.2.4.3.5.3.4-.2.9-.3 1.5-.3.2-.1.3-.1.4-.2.2 0 .3-.1.5-.1.2.2.4.3.7.5zm-3.4 1.6c0 .6 0 1.3.1 1.9 0 .1.1.1.2.1.3-.1.7-.1 1.1-.2 0 0 .1.1.2.1s.2-.1.2-.2v-1.9c0-.2-.2-.3-.4-.3-.5 0-.9.2-1.2.4-.1 0-.2 0-.2.1zm6 .9c0 .2-.1.4-.2.6 0 .5-.1.9-.1 1.5 0 1.1-.1 2.5-.1 4.3 0 .6-.3.9-.8.9-.1 0-.3-.1-.4-.2-.2-.1-.2-.2-.3-.4v-6.1c0-.1-.1-.2-.2-.2s-.1 0-.1-.1c.1 0 .1 0 .1-.1l-.1-.1s-.1-.1-.1-.2l.2-.2c.1-.2.2-.3.3-.5.1-.2.3-.2.5-.2.9.2 1.3.5 1.3 1zm2.2-3.5c.3.2.5.5.5.8 0 .2-.1.4-.2.6-.1.2-.2.4-.2.5v12c-.1.4-.2.7-.5 1-.3.4-.5.6-.8.6-.2 0-.5-.1-.6-.3-.2-.3-.3-.6-.4-.7l-.4-.4c-.2-.1-.2-.2-.2-.2 0-.1 0-.2-.1-.2 0-.1-.2-.2-.4-.4-.1-.1-.2-.1-.2-.2 0-.2.1-.2.2-.2.3.1.5.2.9.3.2.1.5.1.7.1.2 0 .3-.9.3-2.5v-5.2c0-2 0-3.3-.1-3.9 0-.1-.1-.1-.2-.1-.2 0-.2 0-.2-.2.1 0 .1-.1.1-.2h-.2c-.1 0-.2 0-.2-.2l.6-.6c.3-.4.6-.5.8-.5.3-.2.5-.1.8.1zm15.2 3.7c0 .4-.2.6-.6.7l-.9.3v1.7c.5-.2 1-.5 1.5-.7.1 0 .2 0 .2.1s-.1.2-.1.3c-.1.1-.2.2-.2.3 0 .1-.1.2-.1.4 0 .1-.1.2-.3.4-.2.1-.4.3-.7.5-.1.1-.2.1-.2.2v.8c0 2.1 0 3.8.1 4.9-.1.4-.2.7-.5 1-.3.4-.5.6-.8.6-.2 0-.4-.1-.6-.3-.2-.4-.3-.7-.3-.8l-.4-.4c-.2-.1-.2-.2-.2-.3 0-.1 0-.2-.1-.3 0-.1-.2-.3-.4-.5l-.2-.2c0-.2.1-.2.2-.2.2.2.5.3.8.5.2.1.4.2.6.2.1 0 .2-.9.2-2.5v-1.4l-1.2.6c-.1.1-.2.2-.3.4-.1.1-.2.2-.3.2-.2 0-.5-.2-.7-.5-.2-.2-.3-.5-.4-1 0-.2.1-.4.2-.6.2-.2.3-.3.4-.3 0 .1 0 .2.2.2.1 0 .1 0 .1-.1.1 0 .2.1.2.2.3 0 .9-.2 1.9-.7V62h-.1c-.2.1-.4.1-.6.2-.3.2-.5.3-.7.3-.3 0-.5-.1-.7-.3-.2-.3-.2-.5-.2-.6 0-.2 0-.3.2-.6.3-.3.4-.6.5-.7.1 0 .1 0 .2.1 0 .1 0 .1.1.1 0 0 .1-.1.1-.2.1 0 .1 0 .1.1s0 .2.1.2c.4-.1.7-.2 1.1-.2 0-1-.1-1.6-.1-2 0-.1-.1-.1-.2-.1-.2 0-.2 0-.2-.1.1 0 .1-.1.1-.2h-.1c-.1 0-.2 0-.2-.2l.6-.6c.3-.3.5-.5.7-.5.2 0 .5.1.7.2.3.2.5.4.5.7 0 .2-.1.4-.1.5-.1.2-.2.4-.2.5V60c.3 0 .5-.1.8-.1.2 0 .4.2.5.5zm4.6-2.7c.4.3.6.6.6.8 0 .1-.1.2-.1.3-.1.1-.2.2-.3.4-.5 2.4-.9 3.6-1.1 3.6-.2 0-.4-.1-.5-.2-.2-.2-.3-.3-.4-.3h-.5c-.2 0-.4.1-.5.1.1.1.2.1.2.2.3.3.5.6.5.9 0 .1-.1.2-.2.4 0 .1.1.1.1.1l.1.1.1.1c.1 0 .3-.1.5-.2s.4-.2.6-.2c.3 0 .5.2.8.4.2.3.4.5.4.7 0 .2-.1.5-.3.9-.1.5-.2 1-.2 1.7-.1.9-.2 1.7-.5 2.3-.2.6-.4 1-.7 1.3-.3.3-.6.5-1 .6-.2 0-.4-.2-.5-.4 0-.2-.1-.5-.1-.6 0-.1-.1-.2-.2-.3-.1-.4-.2-.5-.2-.6v-.2l-.2-.2c-.1 0-.1-.1-.1-.1 0-.1.1-.2.2-.2 0 0 .2 0 .5.1h.5c.5-.2.9-1.4 1-3.6 0-.3-.2-.4-.4-.5-.2 0-.5.1-.7.2-.1.1-.2.1-.2.1-.1.3-.2.6-.2.9-.2.7-.4 1.3-.5 1.7-.2.5-.4 1-.7 1.3-.2.3-.4.5-.6.5-.1 0-.2 0-.2.1l-.2.2-.2.2c-.2 0-.3-.2-.3-.4.1-.2.2-.5.4-.9.2-.5.4-.9.6-1.4.2-.7.4-1.3.5-2 .2-.7.2-1.4.3-2.1 0-.1-.1-.1-.2-.1s-.1 0-.1-.1c.1 0 .1-.1.2-.1-.1 0-.1-.1-.2-.1 0 0-.1 0-.1-.2.1 0 .2-.2.4-.5-.2-.1-.3-.4-.4-.9 0-.3-.1-.7-.2-1.2 0-.5-.1-.9-.2-1.3-.1 0-.2 0-.2-.1-.1 0-.2 0-.2-.1.1-.1.2-.1.2-.2h-.3c-.1 0-.2 0-.2-.2.2-.1.4-.4.6-.7.2-.2.4-.4.7-.5.2 0 .3 0 .5.1.2.2.4.3.5.3.4-.2.9-.3 1.5-.3.2-.1.3-.1.4-.2.2 0 .3-.1.5-.1.2.4.5.5.7.7zm-3.3 1.6c0 .6 0 1.3.1 1.9 0 .1.1.1.2.1.3-.1.7-.1 1.1-.2 0 0 .1.1.2.1s.2-.1.2-.2v-1.9c0-.2-.2-.3-.4-.3-.5 0-.9.2-1.2.4-.2 0-.2 0-.2.1zm6 .9c0 .2-.1.4-.2.6 0 .5-.1.9-.1 1.5 0 1.1-.1 2.5-.1 4.3 0 .6-.3.9-.8.9-.1 0-.3-.1-.4-.2-.2-.1-.2-.2-.3-.4v-6.1c0-.1-.1-.2-.2-.2s-.1 0-.1-.1c.1 0 .1 0 .1-.1l-.1-.1s-.1-.1-.1-.2l.2-.2c.1-.2.2-.3.3-.5.1-.2.3-.2.5-.2.9.2 1.3.5 1.3 1zm2.1-3.5c.3.2.5.5.5.8 0 .2-.1.4-.2.6-.1.2-.2.4-.2.5v12c-.1.4-.2.7-.5 1-.3.4-.5.6-.8.6-.2 0-.5-.1-.6-.3-.2-.3-.3-.6-.4-.7l-.4-.4c-.2-.1-.2-.2-.2-.2 0-.1 0-.2-.1-.2 0-.1-.2-.2-.4-.4-.1-.1-.2-.1-.2-.2 0-.2.1-.2.2-.2.3.1.5.2.9.3.2.1.5.1.7.1.2 0 .3-.9.3-2.5v-5.2c0-2 0-3.3-.1-3.9 0-.1-.1-.1-.2-.1-.2 0-.2 0-.2-.2.1 0 .1-.1.1-.2h-.2c-.1 0-.2 0-.2-.2l.6-.6c.3-.4.6-.5.8-.5.3-.2.5-.1.8.1z"/><path class="st1" d="M108 71.3c-.2.7-.4 1.1-.8 1.1-.6-.2-.9-.6-.9-1.3.3-3.2.4-7.2.5-11.9 0-.1-.1-.2-.2-.2s-.1-.1-.1-.2c.1 0 .2-.1.2-.1s-.1-.1-.2-.1c0 0-.1 0-.1-.1.1-.1.2-.2.5-.4.2-.1.3-.2.5-.3.2 0 .4.1.5.2.2.1.3.2.3.3h.1c.7-.1 1.2-.2 1.6-.2.2 0 .4-.1.7-.3.2-.1.3-.2.5-.2s.5.1.7.3c.3.2.4.5.4.9s-.2.8-.7 1.1c-.4.4-.7.8-1 1.2-.3.4-.4.6-.4.7 0 .1.2.3.4.5s.4.4.6.7c.3.4.4.9.4 1.4 0 .7-.2 1.2-.4 1.6-.3.4-.6.7-1.1.7-.2 0-.5-.1-.7-.2-.1-.1-.3-.3-.4-.6 0-.1-.2-.3-.6-.4-.1-.1-.2-.1-.2-.2 0 1.7-.1 3.8-.1 6zm.2-9.6c0 .9-.1 1.8-.1 2.7l.6.3c.4.2.7.2.9.2.3-.1.4-.6.4-1.5-.1-.6-.3-1-.7-1.4-.3-.2-.5-.3-.5-.4 0-.1 0-.2.2-.3.2-.2.4-.3.5-.5.4-.8.7-1.3.7-1.5 0-.1-.2-.2-.4-.2-.3.1-.8.2-1.4.4-.1.3-.1 1.1-.2 2.2zm9.1 3.7c0 .1-.1.3-.2.4v.7c.8 0 1.6-.1 2.4-.2.5.1.7.4.7.9s-.2.7-.5.7c-1 0-1.9.1-2.7.1v1.7c1.4-.1 2.6-.2 3.6-.2.5.2.8.5.9.9 0 .5-.3.7-.9.7h-2.5c-.9 0-1.6 0-2.1.1-.9 0-1.6.1-2.3.1-.8.2-1.3.2-1.6.2-.5 0-.9-.3-.9-.9 0-.4.3-.7 1-1 0 0 .1 0 .1.1v.2s.1 0 .2-.1c0 0 .1 0 .1.1v.2c.1 0 .9-.1 2.4-.2h.5v-1.7c-.3 0-.7.1-1 .1-.5.1-.9.1-1.4.2-.3 0-.6-.3-.8-.8 0-.3.1-.5.3-.7.2-.2.4-.3.7-.4 0 0 .1 0 .1.1s0 .1.1.1.1 0 .1-.1c0 0 .1 0 .1.1 0 0 0 .1.1.1s.6 0 1.3-.1h.4V66c0-.1-.1-.2-.2-.2s-.1 0-.1-.1c.1 0 .1 0 .1-.1-.1 0-.1-.1-.2-.1 0 0-.1-.1-.1-.2.1 0 .2-.1.3-.2.1-.2.2-.3.3-.5.2-.2.3-.3.5-.3.8.3 1.2.6 1.2 1.1zm2.8-6.6c0 .4-.2.6-.6.8-.4.1-1 .1-1.8.2h-.6v1.3c1.2-.1 2.5-.2 3.8-.3.4 0 .7.2.8.6 0 .4-.2.7-.6.8-.6.1-1.3.1-2.2.2.2.1.4.3.4.5 0 .1-.1.1-.3.1-.1.1-.2.1-.2.2-.1.1-.1.3-.1.5.1.3.3.4.7.4.7 0 1.3 0 1.6-.1.3.1.5.3.6.6 0 .6-.9.9-2.5.9-1.3-.1-1.9-.5-2-1.4.1-.2.1-.4.1-.5 0-.2-.1-.3-.2-.3s-.1-.1-.1-.1c.2 0 .2-.1.2-.2 0 0-.1-.1-.2-.1s-.1-.1-.1-.2c.1 0 .3-.1.5-.2l.1-.1c-.8.1-1.6.1-2.4.2-.5 0-1 .1-1.5.1-.6.2-1.1.2-1.6.2-.3 0-.5-.1-.6-.2-.1-.2-.2-.4-.2-.5 0-.1 0-.3.1-.5.2-.3.3-.5.4-.6.1 0 .1 0 .1.1s0 .1.1.1l.1-.1c.1 0 .1 0 .1.1s0 .2.1.2c1-.1 2.1-.2 3.2-.3v-1.4c-.3 0-.7.1-1 .1-.4.1-.8.2-1.1.2-.2 0-.4-.1-.6-.2-.1-.2-.2-.4-.2-.5 0-.1 0-.3.1-.5.2-.3.3-.5.4-.6.1 0 .1 0 .1.1s0 .1.1.1l.1-.1c.1 0 .1 0 .1.1s0 .2.1.2c.6-.1 1.2-.1 1.9-.2v-.7c0-.1-.1-.2-.3-.2-.1 0-.1 0-.1-.1.1 0 .1 0 .1-.1-.1 0-.1-.1-.2-.1s-.1-.1-.1-.2c.1 0 .2-.1.3-.2.2-.2.3-.4.4-.5.2-.2.4-.3.6-.3.9.1 1.3.5 1.3 1 0 .1-.1.2-.3.4-.1.3-.1.5-.1.9.7 0 1.4-.1 2.1-.2.7 0 1 .3 1.1.6zm-4.7 5.3c0 .1-.1.2-.2.2-.2.1-.3.2-.4.2-.1.2-.2.3-.3.4l-.5.5c-.2.2-.4.4-.7.5-.4.2-.7.3-.8.3h-.4c-.1 0-.2.1-.3.1-.1.1-.2.1-.2.1-.2 0-.2-.1-.2-.2.1-.2.4-.5.9-.9.3-.3.6-.6.8-.9.3-.4.4-.7.5-.9 0-.1-.1-.1-.2-.1s-.1 0-.1-.1c.1 0 .2-.1.2-.1s-.1-.1-.2-.1-.1-.1-.1-.2c.1 0 .2-.1.5-.1.2-.1.4-.1.6-.2.2 0 .3-.1.4-.1.4.5.7.9.7 1.6z"/><path d="M22.8 85.9c-.1.1-.2.1-.4.1-.4.3-1.1.7-1.5.9l-.1-.1c.1-.3.2-.8.3-1.1h-7c0 .7-.3 1.2-.7 1.4-.4.2-.9.1-1-.4-.1-.4.1-.7.5-.8.4-.2.8-.6.8-1.1h.2c.1.2.1.4.2.6h7l.7-.7 1 1.2zm-1.5 3.7s.8.6 1.3 1c0 .1-.1.2-.3.2h-9.5l-.1-.3h4.2v-1h-3.1l-.1-.3h3.2v-.9c-.7.1-1.4.2-2.2.3l-.3.3-.4-1.2s.2 0 .3-.1c.5-.1 1-.5 1.4-.8h-1.2l-.1-.3h4.9l.6-.6s.7.4 1.1.8c0 .1-.1.2-.3.2h-3.3c-.6.3-1.5.6-2.2.9 1.1 0 2.7 0 4.4-.1-.2-.2-.5-.3-.8-.5l.1-.1c2.9-.1 2.8 1.5 2 1.6.3.2.6.5.9.7 0 .1-.1.2-.3.2h-3.1v1h2.3l.6-1zm-8.4-8.4h3.9v-1l1.8.2c0 .2-.1.3-.4.3v.5h2l.7-.8s.8.6 1.3 1c0 .1-.2.2-.3.2h-1.7c.1.1.8.6 1.2.9 0 .1-.1.2-.3.2h-7.5l-.1-.3h3.2v-.8H13l-.1-.4zm6.5 2.1l.6-.7 1.3 1c-.1.1-.2.2-.4.2v1c0 .1-.7.3-1.2.3h-.3v-.4h-3.8v.1c0 .1-.7.4-1.2.4h-.2v-2.6l1.5.6h3.7zm.1 1.2v-.8h-3.8v.8h3.8zm-.9 3.9c0 .2-.1.3-.4.3v.5h1.6l.5-.7c-.1-.2-.3-.4-.6-.6-.7.1-1.6.2-2.6.4l1.5.1zm-.3-6.9v.8h1.4l.7-.8h-2.1zm7.2 1.5c2.7.5 1.6 2.6.6 1.7 0-.6-.4-1.2-.7-1.7h.1zm2.4.2c-.2 1.2-.7 3.3-.8 3.8-.1.3-.1.7-.1 1 0 .6.4 1.1.4 2.1 0 .6-.4.9-.8.9-.2 0-.5-.2-.5-.6.2-1.2.1-2.3-.1-2.5-.2-.1-.3-.2-.6-.2v-.2h.5c.1 0 .2 0 .3-.2.2-.4.2-.4 1.5-4.2l.2.1zm-1.8-2.9c2.9.6 1.7 2.7.7 1.8-.1-.6-.5-1.3-.7-1.8zm3.7 2.7c1.5.8.7 2 .2 1.4v-.3c-.4.2-1 .4-1.5.6-.1.1-.1.2-.2.2l-.4-1s.2 0 .3-.1c.3-.2.6-.6.9-1.1-.2.1-.3.1-.5.2l-.2.2-.5-1.1s.2 0 .3-.1c.4-.3.9-1.4 1-1.9l1.2.5c0 .1-.2.2-.4.2-.3.4-.9 1-1.4 1.4h.9c.2-.3.3-.5.4-.8l1.1.7c-.1.1-.2.2-.4.1-.4.5-1 1.1-1.7 1.6.4 0 .8-.1 1.2-.1-.1-.3-.2-.5-.2-.7l-.1.1zm6.3 6.1c-.1.1-.2.2-.4.2-.2.8-.4 1.4-.9 1.6-.3.2-.8.2-1.4.2 0-.3 0-.6-.2-.7-.2-.2-.6-.3-1.1-.4v-.2c.5 0 1.3.1 1.5.1.2 0 .3 0 .4-.1.1-.1.3-.4.4-.8h-4.5l-.4.5-1.2-.7c.1-.1.3-.2.4-.3.2-.5.3-1.2.4-1.6l1.4.6h3.6v-.8h-5.4l-.1-.3c-.3.4-1 0-.6-.6.2-.2.4-.5.4-1h.2c.3.9.2 1.4 0 1.6H34l.3-.4-.1-.1c.1-.4.1-1 0-1.3h.2c.7.6.7 1.2.5 1.4l.9.7c-.1.1-.2.2-.4.2v.9c0 .1-.7.3-1 .3h-.2V88h-3.9c-.1.3-.2.5-.2.8h4.4l.6-.6 1 .9zm-6.9-4.4c1.2 1 .3 2.1-.1 1.4.1-.5.1-1 0-1.4h.1zm.6-.2c1.4.9.7 2 .2 1.4 0-.4-.2-1-.3-1.3l.1-.1zm.6-2.7l-.1-.3h1.8l.4-.5s.5.4.8.7c0 .1-.1.2-.3.2h-2.6zm2.5.3s.2 0 .3-.1c.5-.3 1-1.4 1.1-1.9l1.2.5c0 .1-.2.2-.4.2-.4.4-.9 1-1.4 1.4h.9c.2-.3.3-.5.4-.7l1.1.7c-.1.1-.2.2-.4.1-.4.5-1.1 1.1-1.8 1.6.4 0 .8-.1 1.3-.1-.1-.2-.2-.5-.3-.6l.1-.1c1.7.8.9 2 .3 1.4 0-.1 0-.3-.1-.4-.4.2-1 .4-1.6.6l-.2.2-.2-.5c0 .1-.1.1-.2.1v1.4c0 .1-.4.3-.6.3h-.1v-.3h-.7v.1c0 .1-.2.3-.6.3h-.1v-2.5l.8.4h.5l.3-.4.7.5-.2-.4s.2 0 .3-.1c.3-.2.7-.7 1-1.1l-.6.3c-.1.1-.2.2-.2.3l-.3-.6c0 .1-.1.1-.3.1h-2.1l-.1-.3H32l.4-.5s.4.3.7.6l-.2-.5zm-.5.6s.4.4.7.6c0 .1-.1.2-.3.2h-2.1l-.1-.3H32l.4-.5zM31 80.1c1.9.3 1.1 1.8.3 1.2 0-.4-.2-.8-.5-1.1l.2-.1zm1.2 5.4v-1h-.7v1h.7zm1.5-.7c.8 2.3-1.3 1.9-.6.9.2-.1.4-.5.4-.9h.2zm1.3-.3c1.4.8.7 2 .2 1.4 0-.4-.2-1-.3-1.3l.1-.1zm11.1.2c.5.6 1.5 1.1 3.3 1.4v.1c-.6.1-.9.4-.9 1.1-.6-.2-1.1-.5-1.5-.9v4.2c0 .1-.7.4-1.1.4h-.2v-.7h-3.3v.3c0 .2-.6.5-1.1.5H41v-4.8c-.7.4-1.4.8-2.3 1.1l-.1-.1c1.2-.7 2.2-1.5 2.8-2.5h-2.5l-.1-.3h2.9c.3-.4.5-.9.7-1.3h-2.5l-.1-.3h2.8c.3-.8.5-1.7.7-2.6l1.8.5c0 .1-.1.2-.4.2-.2.6-.4 1.3-.7 1.9h1.2c.3-.6.7-1.5.9-2.2l1.5.8c-.1.1-.2.2-.5.1-.4.4-.9.9-1.5 1.2h1.1l.6-.9s.7.6 1.1 1c0 .1-.1.2-.3.2h-4.3c-.2.5-.5.9-.8 1.3h4.4l.7-1s.8.7 1.2 1.1c0 .1-.2.2-.3.2h-2.9zm-5.7-4c3 .4 1.8 2.6.7 1.8-.1-.6-.5-1.3-.7-1.8zm2.3 4c-.2.3-.5.6-.8.9l.5.2h3.2l.5-.5c-.1-.2-.2-.4-.2-.6h-3.2zm2.9 2.5v-1.1h-3.3v1.1h3.3zm-3.3 1.4h3.3v-1.1h-3.3v1.1zm3.3 1.4v-1.1h-3.3V90h3.3zm9.4-6.7v1.1c2.8.9 1.6 3 .6 2.1 0-.6-.3-1.3-.6-1.8v6c0 .1-.5.4-1 .4h-.3v-4.7c-.5.8-1.1 1.5-1.8 2.1l-.1-.1c.9-1.4 1.4-3.2 1.7-5H52V83h1.8v-2.8l1.7.2c0 .2-.1.3-.4.3V83h.2l.6-.9s.7.6 1.1 1.1c0 .1-.2.2-.3.2H55zm2.1 1.1c3.2 1.3 2 3.8.8 2.7 0-.9-.5-1.9-.9-2.6l.1-.1zm4.6-2.4s.7.7 1 1.1c0 .1-.1.2-.3.2h-1.3v6.1c0 1-.2 1.5-1.8 1.7-.1-.4-.1-.8-.3-1-.2-.2-.5-.4-1.2-.5v-.2s1.5.1 1.8.1c.2 0 .3-.1.3-.2v-6h-2.6L57 83h2.7v-2.7l1.7.2c0 .2-.1.3-.4.3V83l.7-1zm12.5.8c-.4 1.9-1.2 3.6-2.4 4.9 1.3.8 2.8 1.4 4.4 1.7v.1c-.7.1-1.2.5-1.4 1.2-1.5-.5-2.8-1.2-3.9-2.2-1.3 1-3 1.8-5.3 2.2l-.1-.1c2-.7 3.5-1.6 4.6-2.8-1-1.2-1.8-2.9-2.2-5h-2.3l-.1-.3h8.2l.8-1.1s.9.7 1.4 1.2c0 .1-.1.2-.3.2h-1.4zm-6.1 0c.5 1.8 1.4 3.2 2.7 4.2.9-1.2 1.5-2.6 1.7-4.2h-4.4zm1.4-2.9c3.5.4 2.5 3.1 1.1 2.2-.1-.8-.6-1.6-1.1-2.2zm9.1 6.2c1-1.5 2.1-3.9 2.7-6.3l1.9.6c0 .1-.2.2-.5.2-.3.9-.7 1.7-1.2 2.4l.5.2c0 .1-.1.2-.3.2v6.8c0 .1-.6.4-1.1.4h-.2v-6c-.5.6-1 1.1-1.6 1.5h-.2zM88.8 89c.4.2.5.3.5.6 0 .6-.6.8-2.8.8h-1.4c-1.3 0-1.8-.3-1.8-1.3v-9l1.7.2c0 .2-.1.3-.4.3V84h2.6l.6-.9s.7.6 1.2 1.1c0 .1-.1.2-.3.2h-4v4.3c0 .3.2.5.7.5h2.4c.2 0 .3-.1.4-.2.1-.2.3-.8.6-1.6h.1l-.1 1.6zm13.5-8c-.1.1-.2.2-.5.3v9c0 .1-.6.4-1.1.4h-.2v-.9h-6.7v.4c0 .2-.5.5-1.1.5h-.2V80.1l1.4.6h6.5l.6-.7 1.3 1zm-1.8 8.5V81h-6.7v8.4h1.8l-.6-.8c.3-.2.4-.3.4-.5v-.5c-.5.2-1 .4-1.5.5l-.1-.2c.9-.4 1.7-1 2.3-1.6h-.3c0 .1-.5.3-.9.3h-.2V84l1.1.5h2.7l.5-.5 1 .8c-.1.1-.2.1-.3.2v1.2l-.1.1.7.7c-.1.1-.2.1-.4 0-.2.1-.6.2-.9.3 1.8 1 1.2 2.2.5 1.7-.3-.5-1.2-1.5-2.4-2.2l.1-.2c.6.1 1 .3 1.4.4.2-.2.4-.5.6-.7-.2 0-.3.1-.5.1h-.2v-.2h-1.2c-.3.3-.6.5-.9.7v1.2c.4-.1.9-.3 1.4-.4v.2c-.4.3-1.3.9-2.1 1.4 0 .1-.1.1-.1.1h4.9zm-1.1-6.8s.7.5 1 .9c0 .1-.1.2-.3.2H94l-.1-.3h2.6v-.8h-2l-.1-.3h2.1v-1l1.5.1c0 .1-.1.2-.3.3v.6h.8l.6-.7s.6.5 1 .8c0 .1-.1.2-.3.2h-2v.8h1.1l.5-.8zm-.9 2.1h-2.8v1.1h2.8v-1.1zm16.1 4.3c.6.1.8.3.8.5 0 .6-.8.8-4.6.8h-2.5c-1.8 0-2.6-.2-2.6-1.5V81h-.4l-.1-.3h8l.7-.9s.8.6 1.2 1.1c0 .1-.2.2-.3.2H107v7.7c0 .5.3.7 1.3.7h2.7c1 0 1.8 0 2.2-.1.2 0 .5 0 .7-.1.2 0 .4-.1.6-.2h.1zm-5-.3v-.6h-.9v.5c0 .1-.5.3-.9.3h-.2v-3.9l1.1.5h.8l.5-.6 1.1.8c-.1.1-.2.2-.4.2v2.4c0 .1-.6.3-.9.3h-.2zm2.5-4.5h-2.2v.3c0 .1-.6.4-1.1.4h-.2v-3.6l1.3.5h2.1l.6-.6 1.2.9c-.1.1-.2.2-.4.2v2c0 .1-.7.3-1 .3h-.2v-.4zm-2.5 3.6v-2h-.9v2h.9zm2.5-3.9v-1.7h-2.2V84h2.2zm1.3 4.7v-.5h-1v.3c0 .1-.5.3-.9.3h-.2v-3.7l1.1.5h.8l.5-.6 1.1.8c-.1.1-.2.2-.4.2v2.4c0 .1-.6.3-.9.3h-.1zm0-.8v-2h-1v2h1z" fill="#cb2314"/><path class="st3" d="M48.6 94.7l-.3-.6c-.1-.2-.2-.2-.6-.2h-.6c-.2 0-.3 0-.3.2v1.5h.8c.4 0 .5-.1.6-.6h.2v1.5h-.3c-.1-.5-.2-.6-.6-.6h-.8V97c0 .6.1.6.7.7v.3h-2.2v-.2c.6 0 .6-.1.6-.7v-2.5c0-.6-.1-.6-.6-.7v-.2h3.3c0 .2 0 .7.1 1.1v-.1zm2.9 3.4c-.2 0-.3-.1-.4-.1-.1-.1-.1-.2-.2-.3-.3.2-.6.4-.8.4-.6 0-.9-.4-.9-.8 0-.3.2-.5.6-.7.4-.1 1-.3 1.1-.4V96c0-.4-.2-.6-.5-.6-.1 0-.2.1-.3.1-.1.1-.1.2-.2.4 0 .2-.1.2-.3.2-.2 0-.4-.2-.4-.3 0-.1.1-.2.2-.3.3-.2.7-.4 1.1-.5.3 0 .5.1.7.2.3.2.4.5.4.8v1.2c0 .3.1.4.2.4s.2 0 .2-.1l.1.2-.6.4zm-.6-1.7c-.1.1-.3.2-.5.2-.2.1-.4.2-.4.5 0 .4.3.5.5.5.1 0 .3 0 .4-.2v-1zm3.3 1.6h-1.8v-.2c.4 0 .4-.1.4-.5v-1.4c0-.4 0-.4-.4-.5v-.2c.4 0 .8-.1 1.2-.3v.7c.3-.4.6-.7.9-.7.3 0 .4.2.4.4 0 .3-.2.4-.3.5h-.2c-.1-.1-.2-.2-.3-.2-.1 0-.3.1-.5.4v1.3c0 .4 0 .4.6.5v.2zm3.8-.6c-.4.6-1 .7-1.3.7-.9 0-1.5-.7-1.5-1.5 0-.5.2-.9.5-1.2.3-.3.7-.5 1.1-.5.7 0 1.1.5 1.1 1.1 0 .1 0 .2-.1.2s-1.1.1-1.8.1c0 .8.5 1.1 1 1.1.3 0 .6-.1.8-.3l.2.3zm-1.3-2.2c-.3 0-.6.3-.6.8h1c.1 0 .2 0 .2-.1-.1-.3-.3-.7-.6-.7zm6.6 0c-.3.1-.4.1-.6.5-.2.6-.6 1.4-.9 2.4h-.3c-.3-.7-.6-1.3-.8-1.9-.3.6-.5 1.3-.8 1.9h-.3c-.3-.8-.6-1.6-.8-2.4-.1-.3-.2-.4-.5-.4V95H60v.2c-.4.1-.5.1-.4.4.1.5.3.9.5 1.4.3-.6.5-1.3.8-1.9h.3c.2.6.5 1.3.8 2 .1-.4.4-1 .5-1.4.1-.3 0-.4-.5-.4V95h1.4v.2zm2.9 2.2c-.4.6-1 .7-1.3.7-.9 0-1.5-.7-1.5-1.5 0-.5.2-.9.5-1.2.3-.3.7-.5 1.1-.5.7 0 1.1.5 1.1 1.1 0 .1 0 .2-.1.2s-1.1.1-1.8.1c0 .8.5 1.1 1 1.1.3 0 .6-.1.8-.3l.2.3zm-1.3-2.2c-.3 0-.6.3-.6.8h1c.1 0 .2 0 .2-.1-.1-.3-.3-.7-.6-.7zm1.6 2.8v-.2c.4-.1.4-.1.4-.5v-3.1c0-.4 0-.4-.4-.5v-.2c.5 0 .9-.1 1.2-.2v4c0 .4 0 .5.5.5v.2h-1.7zm2.1 0v-.2c.4-.1.4-.1.4-.5v-3.1c0-.4 0-.4-.4-.5v-.2c.5 0 .9-.1 1.2-.2v4c0 .4 0 .5.5.5v.2h-1.7zm2.2.6c.4-.2.6-.4.6-.6 0-.2-.2-.3-.5-.4 0 0-.1-.1-.1-.3 0-.2.2-.4.5-.4s.7.3.7.8c0 .6-.6 1-1.1 1.1l-.1-.2zm4.9-4.9c.7 0 1.3.4 1.3 1 0 .2-.1.4-.2.5-.1.1-.3.2-.5.4.5.3 1 .6 1 1.2 0 .8-.8 1.3-1.5 1.3-.9 0-1.5-.4-1.5-1.1 0-.3.2-.5.3-.6.1-.1.4-.3.6-.4-.4-.2-.8-.6-.8-1-.1-.7.5-1.3 1.3-1.3zm0 4.1c.4 0 .7-.3.7-.7 0-.5-.4-.7-1-1-.3.2-.5.5-.5.8 0 .6.4.9.8.9zm-.1-3.8c-.4 0-.6.3-.6.6 0 .5.4.7.9.9.2-.2.3-.4.3-.8.1-.5-.3-.7-.6-.7zm3.7-.3c.7 0 1.3.4 1.3 1 0 .2-.1.4-.2.5-.1.1-.3.2-.5.4.5.3 1 .6 1 1.2 0 .8-.8 1.3-1.5 1.3-.9 0-1.5-.4-1.5-1.1 0-.3.2-.5.3-.6.1-.1.4-.3.6-.4-.4-.2-.8-.6-.8-1-.1-.7.4-1.3 1.3-1.3zm0 4.1c.4 0 .7-.3.7-.7 0-.5-.4-.7-1-1-.3.2-.5.5-.5.8-.1.6.3.9.8.9zm-.1-3.8c-.4 0-.6.3-.6.6 0 .5.4.7.9.9.2-.2.3-.4.3-.8 0-.5-.3-.7-.6-.7zm3.3 1.4c.2-.1.3-.1.5-.1.8 0 1.3.5 1.3 1.3s-.7 1.5-1.6 1.5c-.9 0-1.6-.6-1.6-1.7 0-1.4 1.1-2.2 1.9-2.5.2-.1.7-.2 1-.2v.3c-.2 0-.5.1-.8.2-.4.2-1 .6-1.2 1.4l.5-.2zm.1.4c-.2 0-.4.1-.5.1v.5c0 .9.3 1.4.8 1.4s.6-.5.6-1c0-.6-.3-1-.9-1zm-62.3 7.7c-.1.2-.2.6-.3.7-.1 0-.5.1-.9.1-1.2 0-1.8-.8-1.8-1.5 0-.9.7-1.5 1.9-1.5.4 0 .8.1.9.1 0 .2.1.5.1.7H20c-.1-.3-.2-.5-.5-.6-.1 0-.3-.1-.4-.1-.7 0-1.1.6-1.1 1.3 0 .8.5 1.4 1.1 1.4.4 0 .7-.2.9-.7l.3.1zm2.6.6c-.3 0-.5.1-.8.2v-.3c-.2.2-.4.3-.7.3-.4 0-.6-.2-.6-.6v-.9c0-.2 0-.2-.2-.3h-.1v-.1c.2 0 .6 0 .8-.1v1.3c0 .3.2.4.4.4.1 0 .3 0 .4-.2v-1.1c0-.2 0-.3-.2-.3h-.1v-.1c.3 0 .7 0 .9-.1v1.5c0 .2 0 .3.2.3h.1v.1zm.2.1v-.1c.3 0 .3-.1.3-.3v-2.1c0-.2 0-.3-.3-.3v-.1c.3 0 .6-.1.8-.2v2.7c0 .3 0 .3.3.3v.1h-1.1zm2.3 0c-.1 0-.2.1-.2.1-.3 0-.5-.2-.5-.6v-1.3h-.3v-.1l.1-.2h.2v-.4c.1-.1.3-.2.5-.3h.1v.7h.5v.2h-.5v1.1c0 .4.2.4.3.4.1 0 .2 0 .2-.1v.1l-.4.4z"/><path class="st3" d="M28.2 104.1c-.3 0-.5.1-.8.2v-.3c-.2.2-.4.3-.7.3-.4 0-.6-.2-.6-.6v-.9c0-.2 0-.2-.2-.3h-.1v-.1c.2 0 .6 0 .8-.1v1.3c0 .3.2.4.4.4.1 0 .3 0 .4-.2v-1.1c0-.2 0-.3-.2-.3h-.1v-.1c.3 0 .7 0 .9-.1v1.5c0 .2 0 .3.2.3h.1v.1zm1.4.1h-1.2v-.1c.3 0 .3 0 .3-.3v-1c0-.2 0-.3-.3-.3v-.1c.3 0 .5-.1.8-.2v.5c.2-.3.4-.5.6-.5.2 0 .3.1.3.2 0 .2-.1.3-.2.3h-.1c-.1-.1-.1-.1-.2-.1s-.2.1-.3.3v.8c0 .3 0 .3.4.3v.2zm2.3.1c-.1 0-.2 0-.3-.1-.1-.1-.1-.1-.1-.2-.2.1-.4.3-.5.3-.4 0-.6-.3-.6-.6 0-.2.1-.3.4-.4.3-.1.6-.2.8-.3v-.2c0-.3-.1-.4-.3-.4-.1 0-.2 0-.2.1-.1.1-.1.2-.1.3 0 .1-.1.1-.2.1s-.3-.1-.3-.2.1-.1.2-.2c.2-.1.5-.3.7-.3.2 0 .3 0 .5.1s.3.3.3.5v.8c0 .2.1.3.2.3h.2l.1.1-.8.3zm-.4-1.1c-.1 0-.2.1-.3.2-.2.1-.3.2-.3.3 0 .2.2.3.3.3.1 0 .2 0 .3-.1v-.7z"/><path class="st3" d="M32.4 104.2v-.1c.3 0 .3-.1.3-.3v-2.1c0-.2 0-.3-.3-.3v-.1c.3 0 .6-.1.8-.2v2.7c0 .3 0 .3.3.3v.1h-1.1zm3.8-2.9c.4 0 .6.1.8.2.2.1.3.4.3.7 0 .6-.6.9-1.1.9h-.1l-.3-.1v.6c0 .4 0 .4.5.4v.2h-1.4v-.2c.4 0 .4-.1.4-.4v-1.7c0-.4 0-.4-.4-.4v-.2h1.3zm-.3 1.5h.3c.3 0 .6-.1.6-.7 0-.5-.3-.7-.6-.7H36v1.4zm3.3 1.5c-.1 0-.2 0-.3-.1-.1-.1-.1-.1-.1-.2-.2.1-.4.3-.5.3-.4 0-.6-.3-.6-.6 0-.2.1-.3.4-.4.3-.1.6-.2.8-.3v-.2c0-.3-.1-.4-.3-.4-.1 0-.2 0-.2.1-.1.1-.1.2-.1.3 0 .1-.1.1-.2.1s-.3-.1-.3-.2.1-.1.2-.2c.2-.1.5-.3.7-.3.2 0 .3 0 .5.1s.3.3.3.5v.8c0 .2.1.3.2.3h.2l.1.1-.8.3zm-.4-1.1c-.1 0-.2.1-.3.2-.2.1-.3.2-.3.3 0 .2.2.3.3.3.1 0 .2 0 .3-.1v-.7z"/><path class="st3" d="M41 104.2h-1.2v-.1c.3 0 .3 0 .3-.3v-1c0-.2 0-.3-.3-.3v-.1c.3 0 .5-.1.8-.2v.5c.2-.3.4-.5.6-.5.2 0 .3.1.3.2 0 .2-.1.3-.2.3h-.1c-.1-.1-.1-.1-.2-.1s-.2.1-.3.3v.8c0 .3 0 .3.4.3v.2zm3.1 0h-.8l-.7-.9c0-.1-.1-.1-.1-.1h-.1v.5c0 .3 0 .3.3.3v.1h-1.1v-.1c.3 0 .3 0 .3-.3v-2.1c0-.3 0-.3-.3-.3v-.1c.3 0 .6-.1.8-.2v2c.1 0 .2-.1.3-.2.1-.1.3-.3.3-.4.1-.1 0-.2-.2-.2v-.1h1v.1c-.3 0-.4.1-.6.3-.1.1-.2.2-.3.4.1.2.6.7.7.9.2.2.2.2.4.2v.2zm2.2-2c.6 0 1.1.5 1.1 1 0 .7-.6 1.1-1.1 1.1-.7 0-1.1-.5-1.1-1 0-.7.6-1.1 1.1-1.1zm-.1.2c-.2 0-.5.2-.5.8 0 .6.2 1 .5 1 .2 0 .4-.1.4-.8.1-.7-.1-1-.4-1zm1.7-.1v-.1c0-.3.2-.6.4-.8.2-.1.4-.2.6-.2.2 0 .3.1.4.1.1.1.1.1 0 .2 0 .1-.1.1-.2.2h-.2c-.1-.1-.2-.2-.4-.2s-.2.2-.2.7v.2h.5s0 .2-.1.2h-.4v1.3c0 .3 0 .3.4.3v.1h-1.2v-.1c.3 0 .3-.1.3-.3v-1.3h-.3v-.1l.1-.2h.3zm4.8-.2c0-.2-.1-.3-.2-.4-.1-.1-.1-.1-.4-.1h-.4v2.1c0 .4 0 .4.5.4v.2h-1.5v-.2c.4 0 .5-.1.5-.4v-2.1h-.3c-.3 0-.3 0-.4.2-.1.1-.1.2-.2.4h-.2c0-.3.1-.6.1-.9h.1c.1.1.1.1.3.1h1.9c.1 0 .2 0 .3-.1h.1v.8h-.2zm1.7 2.2c-.1 0-.2 0-.3-.1-.1-.1-.1-.1-.1-.2-.2.1-.4.3-.5.3-.4 0-.6-.3-.6-.6 0-.2.1-.3.4-.4.3-.1.6-.2.8-.3v-.2c0-.3-.1-.4-.3-.4-.1 0-.2 0-.2.1-.1.1-.1.2-.1.3 0 .1-.1.1-.2.1s-.3-.1-.3-.2.1-.1.2-.2c.2-.1.5-.3.7-.3.2 0 .3 0 .5.1s.3.3.3.5v.8c0 .2.1.3.2.3h.2l.1.1-.8.3zm-.4-1.1c-.1 0-.2.1-.3.2-.2.1-.3.2-.3.3 0 .2.2.3.3.3.1 0 .2 0 .3-.1v-.7z"/><path class="st3" d="M55 104.2v-.1c.3 0 .3 0 .3-.4v-.9c0-.3 0-.3-.3-.3v-.1c.3 0 .5-.1.8-.2v1.6c0 .3 0 .3.3.4v.1H55zm.5-2.3c-.2 0-.3-.1-.3-.3 0-.2.1-.3.3-.3.2 0 .3.1.3.3 0 .1-.1.3-.3.3zm4 .5c-.2 0-.3.1-.4.3-.2.4-.4 1-.6 1.6h-.2c-.2-.4-.4-.9-.6-1.3-.2.4-.4.8-.5 1.3H57c-.2-.5-.4-1.1-.6-1.6-.1-.2-.1-.3-.3-.3v-.1h1.1v.1c-.3 0-.3.1-.2.2l.3.9c.2-.4.4-.9.5-1.3h.2c.2.4.4.9.5 1.3.1-.2.2-.7.3-.9 0-.2 0-.2-.3-.3v-.1h.9v.2zm1.7 1.9c-.1 0-.2 0-.3-.1-.1-.1-.1-.1-.1-.2-.2.1-.4.3-.5.3-.4 0-.6-.3-.6-.6 0-.2.1-.3.4-.4.3-.1.6-.2.8-.3v-.2c0-.3-.1-.4-.3-.4-.1 0-.2 0-.2.1-.1.1-.1.2-.1.3 0 .1-.1.1-.2.1s-.3-.1-.3-.2.1-.1.2-.2c.2-.1.5-.3.7-.3.2 0 .3 0 .5.1s.3.3.3.5v.8c0 .2.1.3.2.3h.2l.1.1-.8.3zm-.4-1.1c-.1 0-.2.1-.3.2-.2.1-.3.2-.3.3 0 .2.2.3.3.3.1 0 .2 0 .3-.1v-.7z"/><path class="st3" d="M63.2 104.2v-.1c.2 0 .2 0 .2-.4v-.7c0-.3-.1-.5-.4-.5-.1 0-.3.1-.4.2v1.1c0 .3 0 .3.2.3v.1h-1.1v-.1c.3 0 .3 0 .3-.3v-.9c0-.3 0-.3-.3-.3v-.1c.3 0 .6-.1.8-.2v.3c.1-.1.2-.1.3-.2.1-.1.2-.1.4-.1.4 0 .6.3.6.7v.8c0 .3 0 .3.3.3v.1h-.9zm4.9 0v-.2c.4 0 .4-.1.4-.5v-1.8c-.4.8-.8 1.8-1.1 2.4h-.1c-.3-.6-.7-1.6-1-2.4-.1 1.5-.1 1.8-.1 1.9 0 .2.1.3.4.3v.2h-1.2v-.2c.3 0 .4-.1.4-.3 0-.2 0-.4.1-1.9 0-.2 0-.3-.4-.4v-.2h.9l1 2.1 1-2.1h.9v.2c-.4 0-.4.1-.4.4v1.7c0 .4 0 .4.4.5v.2h-1.2zm1.6 0v-.1c.3 0 .3 0 .3-.4v-.9c0-.3 0-.3-.3-.3v-.1c.3 0 .5-.1.8-.2v1.6c0 .3 0 .3.3.4v.1h-1.1zm.6-2.3c-.2 0-.3-.1-.3-.3 0-.2.1-.3.3-.3.2 0 .3.1.3.3 0 .1-.2.3-.3.3zm.8 2.3v-.1c.3 0 .3-.1.3-.3v-2.1c0-.2 0-.3-.3-.3v-.1c.3 0 .6-.1.8-.2v2.7c0 .3 0 .3.3.3v.1h-1.1zm1.3 0v-.1c.3 0 .3 0 .3-.4v-.9c0-.3 0-.3-.3-.3v-.1c.3 0 .5-.1.8-.2v1.6c0 .3 0 .3.3.4v.1h-1.1zm.5-2.3c-.2 0-.3-.1-.3-.3 0-.2.1-.3.3-.3.2 0 .3.1.3.3.1.1-.1.3-.3.3zm1.8 2.3c-.1 0-.2.1-.2.1-.3 0-.5-.2-.5-.6v-1.3h-.3v-.1l.1-.2h.2v-.4c.1-.1.3-.2.5-.3h.1v.7h.4v.2h-.5v1.1c0 .4.2.4.3.4.1 0 .2 0 .2-.1v.1l-.3.4zm2.1.1c-.1 0-.2 0-.3-.1-.1-.1-.1-.1-.1-.2-.2.1-.4.3-.5.3-.4 0-.6-.3-.6-.6 0-.2.1-.3.4-.4.3-.1.6-.2.8-.3v-.2c0-.3-.1-.4-.3-.4-.1 0-.2 0-.2.1-.1.1-.1.2-.1.3 0 .1-.1.1-.2.1s-.3-.1-.3-.2.1-.1.2-.2c.2-.1.5-.3.7-.3.2 0 .3 0 .5.1s.3.3.3.5v.8c0 .2.1.3.2.3h.2l.1.1-.8.3zm-.4-1.1c-.1 0-.2.1-.3.2-.2.1-.3.2-.3.3 0 .2.2.3.3.3.1 0 .2 0 .3-.1v-.7z"/><path class="st3" d="M78.6 104.2h-1.2v-.1c.3 0 .3 0 .3-.3v-1c0-.2 0-.3-.3-.3v-.1c.3 0 .5-.1.8-.2v.5c.2-.3.4-.5.6-.5.2 0 .3.1.3.2 0 .2-.1.3-.2.3h-.1c-.1-.1-.1-.1-.2-.1s-.2.1-.3.3v.8c0 .3 0 .3.4.3v.2zm3.1-1.8c-.2 0-.3.1-.4.3-.1.2-.2.6-.5 1.2-.3.7-.4 1-.5 1.3 0 .1-.1.1-.2.1-.2 0-.3-.1-.3-.3 0-.1 0-.1.1-.2.2-.1.3-.2.4-.3.1-.1.1-.2.1-.3v-.2c-.2-.6-.5-1.2-.6-1.4-.1-.2-.1-.3-.4-.3v-.1h1.1v.1c-.2 0-.2.1-.2.2l.4 1c.1-.3.3-.7.4-1 .1-.2 0-.2-.2-.2v-.1h.9v.2zm4.1-.9c-.3 0-.4.1-.6.5-.1.3-.7 1.6-1 2.3H84c-.2-.5-.7-1.8-.9-2.4-.1-.3-.2-.4-.5-.4v-.2H84v.2c-.3 0-.4.1-.3.3.1.4.5 1.3.7 1.8.3-.6.5-1.3.7-1.6.1-.3.1-.3-.3-.4v-.2h1.1v.1zm1.5 2.3c-.3.4-.7.5-.8.5-.6 0-1-.4-1-1 0-.3.1-.6.3-.8.2-.2.5-.3.7-.3.4 0 .8.4.8.7 0 .1 0 .1-.1.2-.1 0-.7.1-1.2.1 0 .5.3.8.7.8.2 0 .4-.1.5-.2h.1zm-.8-1.4c-.2 0-.4.2-.4.6h.7c.1 0 .1 0 .1-.1-.1-.3-.2-.5-.4-.5zm2.1 1.8c-.1 0-.2.1-.2.1-.3 0-.5-.2-.5-.6v-1.3h-.3v-.1l.1-.2h.2v-.4c.1-.1.3-.2.5-.3h.1v.7h.5v.2h-.5v1.1c0 .4.2.4.3.4.1 0 .2 0 .2-.1v.1l-.4.4zm2.3-.4c-.3.4-.7.5-.8.5-.6 0-1-.4-1-1 0-.3.1-.6.3-.8.2-.2.5-.3.7-.3.4 0 .8.4.8.7 0 .1 0 .1-.1.2-.1 0-.7.1-1.2.1 0 .5.3.8.7.8.2 0 .4-.1.5-.2h.1zm-.8-1.4c-.2 0-.4.2-.4.6h.7c.1 0 .1 0 .1-.1-.1-.3-.2-.5-.4-.5zm2.3 1.8h-1.2v-.1c.3 0 .3 0 .3-.3v-1c0-.2 0-.3-.3-.3v-.1c.3 0 .5-.1.8-.2v.5c.2-.3.4-.5.6-.5.2 0 .3.1.3.2 0 .2-.1.3-.2.3h-.1c-.1-.1-.1-.1-.2-.1s-.2.1-.3.3v.8c0 .3 0 .3.4.3v.2zm2.2.1c-.1 0-.2 0-.3-.1-.1-.1-.1-.1-.1-.2-.2.1-.4.3-.5.3-.4 0-.6-.3-.6-.6 0-.2.1-.3.4-.4.3-.1.6-.2.8-.3v-.2c0-.3-.1-.4-.3-.4-.1 0-.2 0-.2.1-.1.1-.1.2-.1.3 0 .1-.1.1-.2.1s-.3-.1-.3-.2.1-.1.2-.2c.2-.1.5-.3.7-.3.2 0 .3 0 .5.1s.3.3.3.5v.8c0 .2.1.3.2.3h.2l.1.1-.8.3zm-.4-1.1c-.1 0-.2.1-.3.2-.2.1-.3.2-.3.3 0 .2.2.3.3.3.1 0 .2 0 .3-.1v-.7z"/><path class="st3" d="M96.6 104.2v-.1c.2 0 .2 0 .2-.4v-.7c0-.3-.1-.5-.4-.5-.1 0-.3.1-.4.2v1.1c0 .3 0 .3.2.3v.1h-1.1v-.1c.3 0 .3 0 .3-.3v-.9c0-.3 0-.3-.3-.3v-.1c.3 0 .6-.1.8-.2v.3c.1-.1.2-.1.3-.2.1-.1.2-.1.4-.1.4 0 .6.3.6.7v.8c0 .3 0 .3.3.3v.1h-.9zm5.4-2.7c-.3 0-.4.1-.6.5-.1.3-.7 1.6-1 2.3h-.2c-.2-.5-.7-1.8-.9-2.4-.1-.3-.2-.4-.5-.4v-.2h1.4v.2c-.3 0-.4.1-.3.3.1.4.5 1.3.7 1.8.3-.6.5-1.3.7-1.6.1-.3.1-.3-.3-.4v-.2h1.1v.1zm0 2.7v-.1c.3 0 .3 0 .3-.4v-.9c0-.3 0-.3-.3-.3v-.1c.3 0 .5-.1.8-.2v1.6c0 .3 0 .3.3.4v.1H102zm.6-2.3c-.2 0-.3-.1-.3-.3 0-.2.1-.3.3-.3.2 0 .3.1.3.3 0 .1-.2.3-.3.3zm.8 2.3v-.1c.3 0 .3-.1.3-.3v-2.1c0-.2 0-.3-.3-.3v-.1c.3 0 .6-.1.8-.2v2.7c0 .3 0 .3.3.3v.1h-1.1zm1.3 0v-.1c.3 0 .3-.1.3-.3v-2.1c0-.2 0-.3-.3-.3v-.1c.3 0 .6-.1.8-.2v2.7c0 .3 0 .3.3.3v.1h-1.1zm3 .1c-.1 0-.2 0-.3-.1-.1-.1-.1-.1-.1-.2-.2.1-.4.3-.5.3-.4 0-.6-.3-.6-.6 0-.2.1-.3.4-.4.3-.1.6-.2.8-.3v-.2c0-.3-.1-.4-.3-.4-.1 0-.2 0-.2.1-.1.1-.1.2-.1.3 0 .1-.1.1-.2.1s-.3-.1-.3-.2.1-.1.2-.2c.2-.1.5-.3.7-.3.2 0 .3 0 .5.1s.3.3.3.5v.8c0 .2.1.3.2.3h.2l.1.1-.8.3zm-.4-1.1c-.1 0-.2.1-.3.2-.2.1-.3.2-.3.3 0 .2.2.3.3.3.1 0 .2 0 .3-.1v-.7z"/><path class="st3" d="M109 103.6c-.1.1-.1.1-.1.2s.1.2.3.2h.5c.3 0 .7.1.7.5 0 .5-.6.9-1.3.9-.6 0-.9-.3-.9-.5 0-.1 0-.2.1-.2.1-.1.3-.2.4-.3-.2-.1-.3-.1-.4-.2-.1-.1-.1-.2-.1-.2.2-.1.4-.2.5-.3l.3-.1zm.2 0c-.5 0-.9-.3-.9-.7 0-.5.5-.7.9-.7.2 0 .3 0 .5.1.2 0 .5 0 .6-.1 0 .1-.1.2-.2.3h-.3c.1.1.1.2.1.4.2.5-.2.7-.7.7zm.1.7c-.2 0-.3 0-.4.1-.1.1-.2.2-.2.3 0 .2.2.4.6.4.4 0 .6-.2.6-.4s-.1-.3-.2-.3c-.1-.1-.2-.1-.4-.1zm-.1-1.9c-.2 0-.3.2-.3.5s.1.6.4.6c.2 0 .3-.2.3-.5 0-.4-.1-.6-.4-.6zm3.1 1.4c-.3.4-.7.5-.8.5-.6 0-1-.4-1-1 0-.3.1-.6.3-.8.2-.2.5-.3.7-.3.4 0 .8.4.8.7 0 .1 0 .1-.1.2-.1 0-.7.1-1.2.1 0 .5.3.8.7.8.2 0 .4-.1.5-.2h.1zm-.8-1.4c-.2 0-.4.2-.4.6h.7c.1 0 .1 0 .1-.1-.1-.3-.2-.5-.4-.5z"/><path class="st4" d="M126 29.2l-4.8-4.9.2-.7-.8-.9-1.2.4.3.7-5.6 1.4-.9-.1-.9-.2.2 1.9-1.6-.3-8.6 7.3-2 1.6v3l1.6.5-4.8.1-1.9-.1-.3-4.9 3-.5-10.7-4-8.7.6-2.1-1.1-4.4.1-13.8 5.4v1.8h1l-1.6.5 1.2.5V39h-2.4l-3-1.4v-.3l.8.1.7-.6-4.8-8-17.4 4.7-.2 1.1-2.2-2.8-.5.2-7.4-5.4-4.9 1.8-8.1-1.3-2.1 6.5-2.9 2.1 2.6.8-.1 5.4H3.8l.1.4.7.3 2.1.9-.1.8 5 2.7 3.9-1 6.1 2.4 7.8-1.4.6.5 2.3-.6 8.3.9 12.9-1.3 2.8.6 12.2-.2 1 .7h1.8l1.6-.4 8.3.2 3.2.3 12.8-.5 5.4-1.7 10.5 3.2 12.6-2.6v-.2h.1l-.4-14.5.5-1 .1-1.2zm-109.2-.5l-1.6.6-2.9-.3-1.9-1.3 6.4 1zm-.5 1.7v14l-3 .6.2-15.7 1.7.2v.5l1.1.4zm-7.4 4.9l-.2-.7 2-5.4.9.4.3-.3.3-.2.9.1V45l-4.4-1.8.2-7.9zm-.3 4.9h-.9l.1-3.9.9-.3-.1 4.2zm1-12.7l.4.1 2.2 1.5-.5.4-.3-.1-2-1.1.2-.8zm-.3.8l1.2.7-2 5.4-.9-.2v-.6l1.7-5.3zm-4.2 7.2l2.3-1.6v.5l1.1.2.1.5-2.1.9-1.4-.5zm.6 6.7h1.5l.1-6-.4-.1 1.9-.8v.4l-1.1.4-.1 4.2h1.1l-.1 2.3-1.1.4-1.8-.8zm1.8 1l1.1-.3v.4l-1.1.5v-.6zm22 3l-7.8 1.4-6.1-2.4-3.9 1-4.3-2.3 1.1-.5 4.5 1.8 3.2-.6 5.7 1.7 7.5-.7.1.6zm-13-15.8l5.7-1.9-.2 17.6-5.5-1.6V30.4zM29.6 42v3.4l-7.3.7.3-17.5 3.7 2.3 3.5 2.3-.2 8.8zm0-9.1l-7.3-4.6-6 1.9-1-.3v-.3l6.9-2.6 7.3 5.3.1.6zm23.8 4l-4.1-6.2.8-.3 4 6.6-.7-.1zm-.2 1.1v.8l-12.9-2.4v-1.1L53.2 38zm-12.9-2.9v-.8l2.9-1.2 5.9-2.4 4.1 6.2v.8l-12.9-2.6zm12.9 3.8v1l-13-2.2v-1.1l13 2.3zm.1 1.2v.8l-13-1.6v-1.5l13 2.3zm0 1v.7l-13-.8v-1.5l13 1.6zm0 .9v.8l-13.1-.1v-1.6l13.1.9zm-20.5-5l1.9-.4v.9l-1.9.5v-1zm0 1.2l1.9-.4v.9l-2 .3.1-.8zm-.1 1l1.9-.4v1.3l-2 .3.1-1.2zm1.9 1.1v1.2l-2 .2v-1.2l2-.2zm0 1.4v1.2l-2 .1v-1.1l2-.2zm-4.8 4.5l.1-13.9.5-.2-.3 14.4-.3-.3zm2.5-.1l-2.1.6.3-14.4 2.2 2.8-.4 11zm7.8.8l-7.6-.9.1-2.9 2-.1v.2l3.4-.1V43h2v3.9zm-4-9.1v1.5l-1.3.2v-1.4c.2-.1.7-.2 1.3-.3zm-1.2.1v-1.5l1.2-.3v1.6c-.6.1-1.1.2-1.2.2zm1.2 1.6v1.6l-1.3.1v-1.6l1.3-.1zm0 1.8V43h-1.3v-1.6l1.3-.1zm1.8-3.8v1.7l-1.6.2v-1.5c.6-.2 1.2-.4 1.6-.4zm-1.6.1V36l1.6-.4v1.7c-.5.1-1.1.2-1.6.3zm1.6 1.7v1.6l-1.6.2v-1.6l1.6-.2zm0 1.8V43h-1.6v-1.8l1.6-.1zm2.2 1.7h-2v-1.5l2-.1v1.6zm0-1.7l-2 .1v-1.3l2-.3v1.5zm0-1.7l-2 .3v-1.4l2-.3v1.4zm0-1.7l-2 .3v-1l2-.4v1.1zm0-1.3l-2 .4v-1l2-.5v1.1zm0-1.3l-2 .5v-.2l-3.4.8v.2l-1.9.4v-1.4l4.4-.6 2.8-.4h.1v.7zm.1-1l-.2.1-7.1 1V35l7.3-1.3v.4zm-7.2.7l.2-1.1 15.7-4.2-8.6 4-7.3 1.3zm7.3-1.2l9.5-4.4.3-.1 4.5 7.6-.3.3-4.1-6.9-9.9 4v-.5zm.4 13.4h-.4v-4l13.1.1.1 2.7L40.7 47zm13.1-1.2l-.3-7.8 2.7 1.3v7.1l-2.4-.6zm58.8-18.7l.1.2-.6.5-.9-.9 1.4.2zm.3.7l.6 1.2v1l-3-.7 1.6-1.3.9 1-.1-1.2zm-11.2 10l2.2-1 1.7.7-.7.3h-3.2zm3.1.2v.7l-2.3-.7h2.3zm-.3-1.1l3.4.2v1.1l-3.4-1.3zm-.3-.2l3.9-1.7 2.5 1.2-2.6.8-3.8-.3zm4-1.9l.1-.8 5 .4-.1 2.3-.5.3-4.5-2.2zm2.2-5.3l.4.1V34l-1.2-.1.1-3.9.7-.5zm-.7.3v-.5l.4.1-.4.4zm1.2 4.2v-4.4l1.2.3v4.2l-.8-.1h-.4zm1.4.1v-4.2l1.1.3-.1 4-1-.1zm0-6.2l.5-.4.1.9-.6-.5zm-1.3-1.1l1 1.1-1.7 1.4-1.8-.4 2.5-2.1zm-2.4 2.3l1 .2v.7l-1 .8v-1.7zm-.1 1.9l1-.8-.1 3.7-1-.1.1-2.8zm-1.2-1.1l1.1-.9-.1 1.8-1-.5v-.4zm0 .6l1 .5-.1 2.9-.9.4v-3.8zm-.2-.5v.2l-.1-.1.1-.1zm-.8.7l.6-.5.3.1v3.9l-.8.4v-3.9zm-.2.2v3.9l-.8.4v-3.6l.8-.7zm-1.7 1.5l.7-.6v3.6l-.7.4v-3.4zm-1.1.8l.9-.7v3.2l-.9.4v-2.9zm-.8.8l.7-.6v2.8l-.7.3V34zm-.9.7l.7-.5v2.5l-.7.3v-2.3zm-1 .7l.8-.6v2.3l-.8.4v-2.1zm0 2.6v-.3l3.6-1.7 2.1-1 1.9-.9-.1.7-7.5 3.2zm-13.4-8.2l9.5 3.6-2.1.3-9.1.4-6.5-3.7 8.2-.6zm-3.8 3.7l.1-.2 1.7 1-.2.1-1.6-.9zm1.3 1h-1.8l.5-.8 1.3.8zm-12.6-5l4.3-.1 2.1 1.1 4.9 2.8-1.4 2.1-10 .3 1.2-1.9-14 .7 12.9-5zm-13.5 5.2l14.3-.7-.5.8-13.8.6v-.7zm0 1.3v-.3l13.5-.7-.1.3-12.6.7h-.8zm10.1 10.1l-12 .2v-7h12.2l-.2 6.8zm-5.3-7.6v.5H62v-.5h1.4zm-1.4-.1v-1.1h1.5v1.1H62zm3.1.1v.5h-1.5v-.5h1.5zm-1.5-.1v-1.1h1.5v1.1h-1.5zm1.7.6v-2h-3.5v2h-2.5v-2l-.5-.2 2.3-.7 10.8-.6-.3.5 10.6-.3.6-1H85l.4-.4 9.1-.4.3 4.9c-.7 0-3 .1-5.3.1l-.1-2.2h1.4l.1 2.1h.2l-.1-3.6v-.1h-6.2v1l-1.5-.4-16.1.5h-.1v1.2l1.8-.1v1.6l-3.6.1zm24-2.3l.1 2.2H88l-.1-2.3 1.4.1zm-1.4-.2v-1.2h1.4l.1 1.3-1.5-.1zm1.5-1.2h1.4l.1 1.3h-1.4l-.1-1.3zm-1.7 1.4l.1 2.3h-1.4l-.1-2.4 1.4.1zm-1.3-.2v-1.2h1.3v1.2h-1.3zm-.4.1v.6l-2.6-.5V36l2.6.6zm-1-.4v-.9h1.2v1.2h-.1l-1.1-.3zm1.1 1.2v-.8l.1 2.4H85v-1.8l1.1.2zM69 37.2l-1.7.1v-.8l16-.5v.8l-14.3.4zm.9 9.6l-1-.7.2-6.9v-1.8l2-.1.2 9.5h-1.4zm1.6-.1l-.2-9.4h1.3l.2 9.2-1.3.2zm1.3-9.5L81 37l.1 2.3-8.2-.1-.1-2zm.2 9.2l-.2-7.1 8.2.1.2 7.2-8.2-.2zm8.4.2l-.2-9.6 2.1-.1.9.2.2 9.9-3-.4zm2.9-9.5l.5.1v1.9h-.5v-2zm.3 9.9l-.2-7.7c.9-.1 7-.2 10.5-.3v.1l2.1.1.2 7.4-12.6.4zm18-2.2l-5.2 1.6-.2-7.3 5.7-.1-.3 5.8zm1.3.4c.1-1 .2-4.1.3-5.6l1.1-.3-.3 6.2-1.1-.3zm6.6 2l.2-9.2 1.6-.5-.2 10.2-1.6-.5zm2.6.8l-.8-.3.2-10.4v-.1l-2 .6-.2 9.3-5.1-1.6.3-6.5-1.4.4v.1c-.1 1.9-.2 4.7-.3 5.6l-1-.3.3-5.8h1l-3.2-.9.6-.3 3.5 1.1V38l.8-.4 2.2.9v-1.4l2.8-.8 2 1 .5-.3-.2 11zm12.6-17.6l-.5 1 .4 14.1-12.3 2.5.3-13.7v-.1l.1-5.2-.9-1.9-.1-1.7.5.1 1 .1 6-1.5-.3-.7.7-.2.5.6-.2.7 4.9 4.9v1z"/><path class="st4" d="M118.7 31.8l3.1.8v-3.9l-3.1-1.1v4.2zm1.8-3.5l1.2.4v1.1l-1.2-.4v-1.1zm0 1.3l1.2.4v1.1l-1.2-.4v-1.1zm0 1.3l1.2.4v1l-1.2-.3v-1.1zm-1.6-3.2l1.4.5v1.1l-1.4-.5v-1.1zm0 1.4l1.4.5v1.1l-1.4-.4v-1.2zm0 1.4l1.4.4V32l-1.4-.3v-1.2zm-.4 11.4l3.3.2.1-4.4-3.3-.5-.1 4.7zm1.9-4.3l1.3.2v1.3l-1.3-.2v-1.3zm0 1.5l1.3.2v1.4l-1.3-.1v-1.5zm0 1.6l1.3.1v1.1l-1.3-.1v-1.1zm-1.5-3.3l1.4.2v1.3l-1.4-.2v-1.3zm-.1 1.5l1.4.2v1.4l-1.4-.2v-1.4zm0 1.6l1.4.2v1.2l-1.5-.1.1-1.3zm-10.7 2.1l1.6.3.2-4.7v-.1l-1.6.6-.2 3.9zm1.5-4.3l-.1 4.4-1.3-.1.2-3.8 1.2-.5zm-3.9 4l1.3.1.1-3.5-1.2.4-.2 3zm.3-2.9l.9-.2-.1 3.1-.9-.1.1-2.8zm-96.5 1l2.2.1.1-5.6-2.2.8-.1 4.7zm.2-4.6l1.9-.7-.1 5.2-1.8-.1v-4.4zm14.7 6.5l3.5-.1v-8.1L24.4 33v9.3zm2.9-8.2l.4.1v.9l-.4-.1v-.9zm0 1.2l.4.1v1.2l-.4-.1v-1.2zm0 1.4l.4.1V38h-.4v-1.3zm0 1.5l.4.1v1.3h-.4v-1.4zm0 1.5h.4v1.1h-.4v-1.1zm0 1.3h.4v1h-.4v-1zm-.7-7.1l.5.2v1l-.5-.1v-1.1zm0 1.2l.5.1v1.2l-.5-.1v-1.2zm0 1.4l.5.1V38l-.5-.1v-1.4zm0 1.6l.5.1v1.3h-.5v-1.4zm0 1.5h.5v1.1h-.5v-1.1zm0 1.4h.5v1h-.5v-1zm-.7-7.3l.5.2v1l-.5-.1v-1.1zm0 1.2l.5.1v1.3l-.5-.1v-1.3zm0 1.5l.5.1v1.4l-.5-.1v-1.4zm0 1.6l.5.1v1.4h-.5V38zm0 1.6h.5v1.2h-.5v-1.2zm0 1.4h.5v1h-.5v-1zm-.7-7.5l.4.1v1.1l-.4-.1v-1.1zm0 1.2l.4.1v1.3l-.4-.1v-1.3zm0 1.5l.4.1v1.5l-.4-.1v-1.5zm0 1.7l.4.1v1.4h-.4v-1.5zm0 1.7h.4v1.2h-.4v-1.2zm0 1.4h.4v1.1h-.4V41zm-.7-7.8l.5.2v1.1l-.5-.1v-1.2zm0 1.4l.5.1V36l-.5-.1v-1.3zm0 1.5l.5.1v1.5l-.5-.1v-1.5zm0 1.7l.5.1v1.5h-.5v-1.6zm0 1.7h.5v1.2h-.5v-1.2zm0 1.5h.5v1.1h-.5V41zm-7.4-6.6v4l1.8-.1v-4.4l-1.8.5zm.1 3.8v-3.7l1.4-.4v4l-1.4.1z"/></svg>